<svg width="50" height="46" viewBox="0 0 50 46" fill="none" xmlns="http://www.w3.org/2000/svg">
<path d="M17.5 38.4888C16.9825 38.4888 16.5625 38.8738 16.5625 39.3481C16.5625 39.8228 16.9825 40.2075 17.5 40.2075C18.0175 40.2075 18.4375 39.8228 18.4375 39.3481C18.4375 38.8738 18.0175 38.4888 17.5 38.4888Z" fill="#EFEFEF" stroke="#EFEFEF" stroke-width="0.658514"/>
<path d="M47.8149 14.3945C47.8105 14.3914 47.8058 14.3888 47.8014 14.3857L40 9.48394V7.01458C40 6.54024 39.5803 6.1552 39.0625 6.1552H34.5577L27.7092 1.78985C26.0887 0.737447 23.9113 0.737447 22.2974 1.78548L15.4412 6.1552H10.9375C10.4197 6.1552 10 6.54024 10 7.01458V9.48394L2.19861 14.3857C2.19421 14.3884 2.18945 14.3914 2.18506 14.3945C1.43066 14.8866 1 15.6842 1 16.4969V42.4208C1 43.8156 2.23047 44.999 3.8125 44.999H46.1875C47.7706 44.999 49 43.8146 49 42.4208V16.4969C49 15.6503 48.5389 14.8668 47.8149 14.3945ZM47.125 42.3194L31.4874 30.2963L47.125 17.4949V42.3194ZM2.875 17.4949L18.5126 30.2963L2.875 42.3194V17.4949ZM19.9258 31.4531L21.8334 33.0147C22.7002 33.7425 23.8245 34.143 25 34.143C26.1755 34.143 27.2998 33.7425 28.1666 33.0147L30.0742 31.4531L45.4573 43.2802H4.54272L19.9258 31.4531ZM46.5347 15.6738L40 21.0234V11.5676L46.5347 15.6738ZM23.3744 3.19237C24.3467 2.56093 25.6533 2.5606 26.6322 3.1964L31.2736 6.1552H18.7257L23.3744 3.19237ZM38.125 7.87395V22.5582L26.9135 31.7364C26.9102 31.7391 26.9069 31.7417 26.9036 31.7444C25.8185 32.6582 24.1815 32.6582 23.0964 31.7444C23.0931 31.7417 23.0902 31.7391 23.0869 31.7364L11.875 22.5582C11.875 19.1791 11.875 11.0087 11.875 7.87395H38.125ZM10 21.0234L3.46533 15.6738L10 11.5676V21.0234Z" fill="#EFEFEF" stroke="#EFEFEF" stroke-width="0.658514"/>
<path d="M32.5 38.4888H21.25C20.7322 38.4888 20.3125 38.8738 20.3125 39.3481C20.3125 39.8228 20.7322 40.2075 21.25 40.2075H32.5C33.0178 40.2075 33.4375 39.8228 33.4375 39.3481C33.4375 38.8738 33.0178 38.4888 32.5 38.4888Z" fill="#EFEFEF" stroke="#EFEFEF" stroke-width="0.658514"/>
<path d="M25 26.7803C25.5178 26.7803 25.9375 26.3956 25.9375 25.9209C25.9375 25.4466 25.5178 25.0615 25 25.0615C21.3815 25.0615 18.4375 22.3632 18.4375 19.0459C18.4375 15.7289 21.3815 13.0303 25 13.0303C28.6185 13.0303 31.5625 15.7289 31.5625 19.0459V20.7646C31.5625 21.2386 31.1421 21.624 30.625 21.624C30.1079 21.624 29.6875 21.2386 29.6875 20.7646V19.0459C29.6875 16.6769 27.5847 14.749 25 14.749C22.4153 14.749 20.3125 16.6769 20.3125 19.0459C20.3125 21.4152 22.4153 23.3428 25 23.3428C26.2601 23.3428 27.4045 22.8839 28.2479 22.14C28.7467 22.8621 29.6256 23.3428 30.625 23.3428C32.1759 23.3428 33.4375 22.1863 33.4375 20.7646V19.0459C33.4375 14.7812 29.6523 11.3115 25 11.3115C20.3477 11.3115 16.5625 14.7812 16.5625 19.0459C16.5625 23.3109 20.3477 26.7803 25 26.7803ZM25 21.624C23.4491 21.624 22.1875 20.4676 22.1875 19.0459C22.1875 17.6246 23.4491 16.4678 25 16.4678C26.5509 16.4678 27.8125 17.6246 27.8125 19.0459C27.8125 20.4676 26.5509 21.624 25 21.624Z" fill="#EFEFEF" stroke="#EFEFEF" stroke-width="0.658514"/>
</svg>
