<svg width="232" height="105" viewBox="0 0 232 105" fill="none" xmlns="http://www.w3.org/2000/svg">
<path d="M18.8448 0.909546C12.9496 2.14883 6.86106 4.87527 4.83156 7.35384C-0.677078 13.9634 -0.580435 28.0913 4.9282 34.7834C5.99127 36.1053 8.69727 37.923 10.9201 38.997C14.8824 40.732 16.0421 40.8146 52.6697 41.2277C91.7134 41.6408 92.2933 41.7234 96.0624 45.2761C98.5751 47.672 98.6717 55.6035 96.2556 58.743C93.3564 62.5435 90.2638 62.7914 52.5731 62.5435C13.2395 62.2956 14.5925 62.4609 12.563 55.934L11.4999 52.7944H5.79799C-0.483792 52.7944 -0.677078 52.9597 1.06249 57.669C3.47856 64.0306 4.2517 65.3526 6.86106 67.5007C12.7563 72.21 15.3656 72.4578 55.0858 72.4578C86.5914 72.4578 91.9067 72.2926 95.6758 71.1359C98.0919 70.3923 100.991 69.153 102.054 68.4921C110.462 63.1218 111.718 44.6977 104.084 37.6751C98.1885 32.2222 97.4154 32.1396 58.565 32.1396C38.4633 32.1396 22.2273 31.8091 20.1978 31.3134C18.3616 30.8177 15.7522 29.4958 14.3992 28.3391C12.4663 26.5215 12.0798 25.3648 12.0798 20.8208C12.0798 15.8636 12.2731 15.2853 15.1723 13.1372C17.1052 11.65 19.8112 10.576 22.4205 10.2455C24.74 9.99766 48.1275 9.83242 74.4144 9.99766L122.253 10.2455L122.542 41.393L122.736 72.623H128.051H133.366L133.56 57.0906L133.85 41.6408L140.615 41.393C146.244 41.393 146.051 41.393 148.588 41.393C152.574 41.393 151.125 41.393 151.849 41.393C154.386 41.393 154.821 41.3104 185.167 41.0625C215.899 40.8146 217.059 40.732 221.021 38.997C225.95 36.6837 228.366 33.8746 230.396 27.8434C232.329 22.0601 232.329 19.912 230.396 14.1286C227.69 5.8667 223.921 3.22288 212.324 0.82692C206.525 -0.32975 24.6433 -0.247124 18.8448 0.909546ZM211.744 10.6586C213.58 11.1543 216.189 12.4762 217.542 13.6329C219.475 15.4505 219.862 16.6072 219.862 21.0686C219.862 25.9432 219.572 26.5215 216.673 29.0001L213.58 31.7265L174.826 31.9744C146.22 32.1396 135.783 31.9744 134.719 31.2308C132.98 29.9915 132.787 12.311 134.526 10.8239C135.976 9.58456 206.428 9.41933 211.744 10.6586Z" fill="#1A7BBF"/>
<path d="M2.12614 85.5109C0.579857 86.4198 0 87.5764 0 89.9724C0 94.8469 2.12614 95.7557 14.4964 95.7557C25.9969 95.7557 27.6398 96.2514 26.6734 99.391L26.0936 101.539H15.3662C6.86164 101.539 4.63885 101.291 4.25228 100.3C3.47914 98.73 0 98.6474 0 100.217C0 100.878 1.15971 102.2 2.60936 103.191C5.02543 104.844 6.18514 104.926 16.1393 104.679C28.0264 104.431 29.4761 103.852 30.5391 99.391C30.9257 97.656 30.5391 96.3341 29.1861 94.9295C27.3499 93.0293 26.4801 92.8641 15.7528 92.451C4.34893 92.0379 4.34893 92.0379 4.34893 89.9724C4.34893 87.9069 4.34893 87.9069 14.9796 87.659C23.9674 87.4938 25.8036 87.659 26.7701 88.8157C27.4466 89.5593 28.6063 89.9724 29.4761 89.6419C30.7324 89.2288 30.8291 88.8157 29.8626 87.3286C29.1861 86.2545 28.2197 85.1805 27.6398 84.85C27.06 84.5195 21.5513 84.189 15.4628 84.189C6.86164 84.189 3.76907 84.5195 2.12614 85.5109Z" fill="black"/>
<path d="M40.3968 89.8071C47.355 95.3426 47.4517 95.3426 47.355 99.6388C47.355 103.935 48.8047 106.001 50.351 103.935C50.8342 103.274 51.2208 101.043 51.2208 98.9779C51.2208 95.26 51.414 94.9295 58.179 89.8898C64.1709 85.3457 64.7507 84.6021 62.9145 84.3543C61.4649 84.189 59.0488 85.2631 55.5697 87.8243C52.767 89.8898 49.8678 91.6248 49.2879 91.6248C48.708 91.6248 45.8088 89.9724 43.1028 87.9069C40.0102 85.6762 37.0143 84.189 35.6613 84.189C33.6318 84.2717 34.3083 85.0152 40.3968 89.8071Z" fill="black"/>
<path d="M69.5832 85.8413C68.5202 86.7501 67.6504 88.5678 67.6504 89.9723C67.6504 94.6816 70.1631 95.7556 81.9535 95.7556C93.6473 95.7556 95.2902 96.2513 94.3238 99.3909L93.7439 101.539H83.2099C73.5456 101.539 72.5792 101.374 71.3228 99.7214C70.5497 98.7299 69.4866 98.2342 68.8101 98.5647C67.0705 99.4735 67.3605 100.548 70.0665 102.778C72.2892 104.761 73.0624 104.844 83.1132 104.844C93.1641 104.844 93.9372 104.761 96.16 102.778C99.0593 100.382 99.2526 97.4906 96.7399 94.8468C95.0003 93.0292 94.0339 92.864 83.4032 92.4509C71.9993 92.0378 71.9993 92.0378 71.9993 89.9723V87.9068L92.4876 87.6589L112.976 87.4937L113.266 95.9209C113.459 102.861 113.846 104.431 115.005 104.431C116.165 104.431 116.552 102.861 116.745 96.0035L117.035 87.4937L140.422 87.3285C161.78 87.0806 163.81 86.998 164.1 85.5935C164.39 84.2716 161.684 84.1889 118.001 84.1889C72.7725 84.1889 71.4195 84.2716 69.5832 85.8413Z" fill="black"/>
<path d="M203.529 85.4282C201.306 87.4111 200.726 89.8897 201.983 92.5335C203.432 95.4252 204.495 95.673 217.446 96.0035L227.593 96.1687V98.6473V101.126L217.542 101.374C208.265 101.622 207.298 101.456 205.172 99.7214C202.563 97.6559 200.823 98.4821 202.079 101.374C203.239 104.018 206.718 104.844 217.349 104.844C225.467 104.844 227.207 104.596 229.429 103.109C232.619 100.961 232.908 96.7471 229.913 94.4337C228.27 93.1118 225.854 92.7813 216.672 92.4509C205.365 92.0378 205.365 92.0378 205.365 89.9723C205.365 87.9068 205.365 87.9068 216.093 87.6589C224.79 87.4937 227.013 87.6589 228.076 88.733C229.816 90.468 231.942 90.3028 231.942 88.4025C231.942 85.0978 228.463 84.1889 216.286 84.1889C207.588 84.1889 204.689 84.4368 203.529 85.4282Z" fill="black"/>
<path d="M167.868 85.5935C166.998 86.2544 166.998 101.787 167.771 103.522C168.061 104.265 168.931 104.844 169.704 104.844C170.767 104.844 171.057 103.191 171.057 97.408C171.057 93.2771 171.251 89.9723 171.541 89.9723C171.83 89.9723 174.44 91.2942 177.339 92.9466L182.654 96.0035L187.97 92.9466C190.869 91.2942 193.478 89.9723 193.672 89.9723C193.962 89.9723 194.348 93.1944 194.445 97.1602C194.638 102.944 195.025 104.431 196.184 104.431C197.344 104.431 197.731 102.696 197.924 94.6816C198.117 87.9068 197.827 85.0151 197.054 85.0151C196.474 85.0151 192.995 86.7501 189.419 88.8156L182.848 92.5335L176.373 88.8156C169.801 84.9325 168.931 84.602 167.868 85.5935Z" fill="black"/>
<path d="M133.85 93.3604C132.401 95.3432 135.493 95.7563 149.41 95.5911C161.49 95.3432 163.81 95.178 163.81 94.1039C163.81 93.0299 161.394 92.8646 149.12 92.6168C139.166 92.4515 134.237 92.6994 133.85 93.3604Z" fill="black"/>
<path d="M133.56 102.944C133.85 104.265 135.396 104.431 148.829 104.431C162.263 104.431 163.809 104.265 164.099 102.944C164.389 101.622 163.132 101.539 148.829 101.539C134.526 101.539 133.27 101.622 133.56 102.944Z" fill="black"/>
</svg>
