<svg width="48" height="44" viewBox="0 0 48 44" fill="none" xmlns="http://www.w3.org/2000/svg">
<path d="M47.0601 0.803647C46.2879 0.0563042 45.1904 -0.192744 44.1956 0.153547L1.99043 14.849C0.84021 15.2494 0.0602089 16.334 0.00330257 17.6117C-0.05351 18.8895 0.626647 20.0466 1.73609 20.5595L12.1738 25.3832C12.2247 25.6327 15.221 40.3118 15.3229 40.8108C15.4537 41.4517 15.7617 42.0226 16.4141 42.1981C17.074 42.3757 17.5402 41.9947 18.0326 41.6054C18.3066 41.3887 25.7782 35.4792 25.7782 35.4792L34.8334 43.306C35.3609 43.7621 36.0055 44 36.6628 44C36.9757 43.9999 37.2916 43.946 37.599 43.8359C38.552 43.4946 39.2585 42.673 39.4889 41.6383L47.9232 3.76093C48.1629 2.68404 47.8323 1.55099 47.0601 0.803647ZM18.7073 28.1473C18.7021 28.1601 18.6971 28.1747 18.6923 28.1921L16.9463 34.6355L14.9978 25.09L28.3963 17.2269L19.0287 27.5728C18.8811 27.7358 18.7725 27.9329 18.7073 28.1473ZM19.2614 36.9135L20.0545 33.9868L20.813 31.1874L23.5309 33.5367L19.2614 36.9135ZM45.1789 3.07905L36.7447 40.9564C36.7405 40.9752 36.7349 41.0011 36.6936 41.0159C36.6527 41.0305 36.6329 41.0138 36.6188 41.0015L26.7103 32.437C26.71 32.4368 26.7098 32.4365 26.7095 32.4363L22.1187 28.4682L36.8677 12.1788C37.3494 11.6467 37.3906 10.8227 36.9647 10.24C36.5386 9.65709 35.7735 9.49063 35.1644 9.84831L13.3252 22.665L2.86615 17.8313C2.83427 17.8167 2.81674 17.8084 2.81927 17.7515C2.82181 17.6948 2.83999 17.6883 2.87299 17.6768L45.0782 2.98151C45.0986 2.97448 45.1217 2.96636 45.1556 2.99903C45.1895 3.03191 45.1839 3.05687 45.1789 3.07905Z" fill="#EFEFEF"/>
</svg>
