<svg width="67" height="41" viewBox="0 0 67 41" fill="none" xmlns="http://www.w3.org/2000/svg">
<path d="M62.8114 40.9996H54.436C53.1478 41.0028 51.9301 40.3808 51.1378 39.3153L42.9719 28.3886C42.6054 27.8974 41.9828 27.7033 41.42 27.906C40.8576 28.1081 40.4789 28.6615 40.4768 29.2851V33.6779C40.4768 37.7232 36.7252 40.9996 32.1014 40.9996C30.2938 41.0168 28.5195 40.4896 26.9889 39.4805C15.2632 31.6097 7.30643 21.6712 0.397132 6.26C-0.2117 4.90012 -0.115595 3.30806 0.651707 2.03934C1.41901 0.770621 2.75118 0.00166884 4.18355 6.01203e-05H12.559C14.2346 -0.00422971 15.7514 1.03981 16.4149 2.65386L17.357 4.96018C18.7807 8.42475 20.6921 11.6459 23.0282 14.5147C23.1044 14.6005 23.2128 14.6477 23.3247 14.6429C23.4275 14.6531 23.5302 14.6171 23.6064 14.5437C23.6831 14.4707 23.7265 14.3667 23.726 14.2584V8.52932C21.81 7.81131 20.6639 5.75273 21.008 3.64964C21.352 1.54654 23.0875 0.00703106 25.1221 6.01203e-05H36.2891C38.6017 6.01203e-05 40.4768 1.96695 40.4768 4.39285V14.6429C40.4778 15.2965 40.8919 15.8703 41.4915 16.0489C42.0912 16.2274 42.7307 15.9674 43.0594 15.4113L50.8587 2.10476C51.6147 0.791534 52.9735 -0.00798321 54.436 6.01203e-05H62.8114C64.3588 0.000596452 65.7794 0.896635 66.5063 2.32944C67.2332 3.76224 67.1473 5.49909 66.2834 6.84556L57.4894 19.6395C57.1341 20.1526 57.1341 20.847 57.4894 21.3602L66.2139 34.0442C67.13 35.3826 67.2552 37.1463 66.538 38.6123C65.8208 40.0784 64.3818 40.9996 62.8114 40.9996ZM41.8729 24.8923C43.1611 24.8897 44.3782 25.5112 45.1706 26.5766L53.3364 37.5034C53.6002 37.86 54.0056 38.0696 54.436 38.0707H62.8114C63.3369 38.0729 63.819 37.7645 64.0582 37.2739C64.298 36.7827 64.254 36.1928 63.9452 35.7462L55.2212 23.0622C54.164 21.527 54.164 19.4544 55.2212 17.9192L63.9979 5.1618C64.1359 4.93122 64.2085 4.66472 64.207 4.39285C64.207 3.58421 63.5823 2.92841 62.8114 2.92841H54.436C53.9519 2.92894 53.5031 3.19223 53.2495 3.6239L45.4497 16.9304C44.4733 18.6131 42.5482 19.4083 40.7401 18.8753C38.932 18.3428 37.6836 16.6124 37.6852 14.6429V4.39285C37.6852 3.58421 37.06 2.92841 36.2891 2.92841H25.1221C24.3507 2.92841 23.726 3.58421 23.726 4.39285C23.726 5.20148 24.3507 5.85729 25.1221 5.85729H26.5176V14.2584C26.5018 15.6478 25.6701 16.8827 24.4263 17.3626C23.1831 17.842 21.7865 17.4661 20.9165 16.4183C18.4019 13.3291 16.3428 9.86185 14.8097 6.13184L13.8497 3.82552C13.6314 3.28071 13.1223 2.9268 12.559 2.92841H4.18355C3.70711 2.93109 3.26493 3.18848 3.01036 3.61103C2.75578 4.03358 2.7246 4.56283 2.92703 5.01541C9.67991 20.0786 17.0953 29.3586 28.5067 37.0277C29.5879 37.7222 30.8336 38.0841 32.1014 38.0707C35.1721 38.0707 37.6852 36.0942 37.6852 33.6779V29.2851C37.6852 26.8592 39.5597 24.8923 41.8729 24.8923Z" fill="#EFEFEF"/>
</svg>
